<?xml version="1.0" encoding="UTF-8"?>
<svg style="background:#ECEFE8" xmlns="http://www.w3.org/2000/svg" viewBox="0 0 530 86" width="530" height="86" role="img" aria-label="Ch-3 log"><path d="M16 40 L16.0 42.9 L27.0 33.3 L38.0 38.8 L49.0 47.0 L60.0 39.4 L71.0 33.2 L82.0 42.4 L93.0 46.2 L104.0 36.0 L115.0 34.8 L126.0 45.3 L137.0 43.8 L148.0 33.7 L159.0 37.8 L170.0 46.9 L181.0 40.4 L192.0 33.0 L203.0 41.4 L214.0 46.6 L225.0 36.9 L236.0 34.2 L247.0 44.6 L258.0 44.6 L269.0 34.2 L280.0 36.9 L291.0 46.6 L302.0 41.4 L313.0 33.0 L324.0 40.4 L335.0 46.9 L346.0 37.9 L357.0 33.7 L368.0 43.8 L379.0 45.4 L390.0 34.9 L401.0 36.0 L412.0 46.2 L423.0 42.4 L434.0 33.2 L445.0 39.3 L456.0 47.0 L467.0 38.9 L478.0 33.3 L489.0 42.8 L500.0 46.0 L511.0 35.6" style="stroke:var(--rule,#C5CBC2);stroke-width:1.2;stroke-linecap:round;stroke-linejoin:round;fill:none"/><line x1="16.0" y1="18.0" x2="16.0" y2="62.0" style="stroke:var(--ink-2,#4A5463);stroke-width:1;stroke-linecap:round;fill:none;stroke-dasharray:2 3"/><text x="38.0" y="76" text-anchor="middle" style="font:10px var(--mono,monospace);fill:var(--ink-2,#4A5463)">raken</text><circle cx="38.0" cy="40.0" r="2" style="fill:var(--groove,#2B3440);stroke:none"/><text x="82.0" y="76" text-anchor="middle" style="font:10px var(--mono,monospace);fill:var(--ink-2,#4A5463)">halu</text><circle cx="82.0" cy="40.0" r="2" style="fill:var(--groove,#2B3440);stroke:none"/><text x="135.6" y="76" text-anchor="middle" style="font:10px var(--mono,monospace);fill:var(--ink-2,#4A5463)">senkepel</text><circle cx="135.6" cy="40.0" r="2" style="fill:var(--groove,#2B3440);stroke:none"/><line x1="167.2" y1="18.0" x2="167.2" y2="62.0" style="stroke:var(--ink-2,#4A5463);stroke-width:1;stroke-linecap:round;fill:none;stroke-dasharray:2 3"/><text x="198.8" y="76" text-anchor="middle" style="font:10px var(--mono,monospace);fill:var(--ink-2,#4A5463)">tirtilun</text><circle cx="198.8" cy="40.0" r="2" style="fill:var(--groove,#2B3440);stroke:none"/><text x="258.8" y="76" text-anchor="middle" style="font:10px var(--mono,monospace);fill:var(--ink-2,#4A5463)">kasluhi</text><circle cx="258.8" cy="40.0" r="2" style="fill:var(--groove,#2B3440);stroke:none"/><text x="315.6" y="76" text-anchor="middle" style="font:10px var(--mono,monospace);fill:var(--ink-2,#4A5463)">putusen</text><circle cx="315.6" cy="40.0" r="2" style="fill:var(--groove,#2B3440);stroke:none"/><line x1="344.0" y1="18.0" x2="344.0" y2="62.0" style="stroke:var(--ink-2,#4A5463);stroke-width:1;stroke-linecap:round;fill:none;stroke-dasharray:2 3"/><text x="375.6" y="76" text-anchor="middle" style="font:10px var(--mono,monospace);fill:var(--ink-2,#4A5463)">silkalus</text><circle cx="375.6" cy="40.0" r="2" style="fill:var(--groove,#2B3440);stroke:none"/><text x="429.2" y="76" text-anchor="middle" style="font:10px var(--mono,monospace);fill:var(--ink-2,#4A5463)">halu</text><circle cx="429.2" cy="40.0" r="2" style="fill:var(--groove,#2B3440);stroke:none"/><text x="482.8" y="76" text-anchor="middle" style="font:10px var(--mono,monospace);fill:var(--ink-2,#4A5463)">senkepel</text><circle cx="482.8" cy="40.0" r="2" style="fill:var(--groove,#2B3440);stroke:none"/></svg>